<?xml version="1.0" encoding="UTF-8" standalone="no"?>
<svg
   xmlns:dc="http://purl.org/dc/elements/1.1/"
   xmlns:cc="http://creativecommons.org/ns#"
   xmlns:rdf="http://www.w3.org/1999/02/22-rdf-syntax-ns#"
   xmlns:svg="http://www.w3.org/2000/svg"
   xmlns="http://www.w3.org/2000/svg"
   xmlns:sodipodi="http://sodipodi.sourceforge.net/DTD/sodipodi-0.dtd"
   xmlns:inkscape="http://www.inkscape.org/namespaces/inkscape"
   viewBox="0 0 257.06668 267.10132"
   height="267.10132"
   width="257.06668"
   xml:space="preserve"
   id="svg2"
   version="1.1"
   sodipodi:docname="topview_ill.svg"
   inkscape:version="0.92.4 5da689c313, 2019-01-14"><sodipodi:namedview
     pagecolor="#ffffff"
     bordercolor="#666666"
     borderopacity="1"
     objecttolerance="10"
     gridtolerance="10"
     guidetolerance="10"
     inkscape:pageopacity="0"
     inkscape:pageshadow="2"
     inkscape:window-width="2560"
     inkscape:window-height="1377"
     id="namedview107"
     showgrid="false"
     inkscape:zoom="3.5342394"
     inkscape:cx="158.23036"
     inkscape:cy="141.03014"
     inkscape:window-x="0"
     inkscape:window-y="27"
     inkscape:window-maximized="1"
     inkscape:current-layer="svg2" /><metadata
     id="metadata8"><rdf:RDF><cc:Work
         rdf:about=""><dc:format>image/svg+xml</dc:format><dc:type
           rdf:resource="http://purl.org/dc/dcmitype/StillImage" /><dc:title /></cc:Work></rdf:RDF></metadata><defs
     id="defs6"><clipPath
       id="clipPath64"
       clipPathUnits="userSpaceOnUse"><path
         id="path62"
         d="M -1,-1 H 20.492 V 12.955 H -1 Z" /></clipPath><clipPath
       id="clipPath84"
       clipPathUnits="userSpaceOnUse"><path
         id="path82"
         d="M -1,-1 H 6.694 V 7.918 L -1,7.918 Z" /></clipPath><clipPath
       id="clipPath104"
       clipPathUnits="userSpaceOnUse"><path
         id="path102"
         d="M -1,-1 H 6.242 V 9.856 H -1 Z" /></clipPath><clipPath
       id="clipPath128"
       clipPathUnits="userSpaceOnUse"><path
         id="path126"
         d="M -1,-1 H 78.349 V 9.856 H -1 Z" /></clipPath><clipPath
       id="clipPath154"
       clipPathUnits="userSpaceOnUse"><path
         id="path152"
         d="M -1,-1 H 72.454 V 10.963 H -1 Z" /></clipPath></defs><g
     id="g12"
     transform="matrix(1.3333333,0,0,-1.3333333,-127.46667,1077.2347)"><path
       inkscape:connector-curvature="0"
       d="M 128,768 V 640 h 128 v 128 z"
       style="fill:none;stroke:#000000;stroke-width:0.80000001;stroke-linecap:butt;stroke-linejoin:round;stroke-miterlimit:10;stroke-dasharray:4;stroke-dashoffset:0;stroke-opacity:1"
       id="path14" /></g><g
     id="g16"
     transform="matrix(1.3333333,0,0,-1.3333333,-127.46667,1077.2347)"><path
       inkscape:connector-curvature="0"
       d="m 256,704 c 0,35.346 -28.654,64 -64,64 -35.346,0 -64,-28.654 -64,-64 0,-35.346 28.654,-64 64,-64 35.346,0 64,28.654 64,64"
       style="fill:none;stroke:#000000;stroke-width:2;stroke-linecap:butt;stroke-linejoin:round;stroke-miterlimit:10;stroke-dasharray:none;stroke-opacity:1"
       id="path18" /></g><g
     id="g20"
     transform="matrix(1.3333333,0,0,-1.3333333,-127.46667,1077.2347)"><g
       id="g22"><path
         inkscape:connector-curvature="0"
         d="m 193.8,704 c 0,0.994 -0.806,1.8 -1.8,1.8 -0.994,0 -1.8,-0.806 -1.8,-1.8 0,-0.994 0.806,-1.8 1.8,-1.8 0.994,0 1.8,0.806 1.8,1.8"
         style="fill:#000000;fill-opacity:1;fill-rule:evenodd;stroke:none"
         id="path24" /></g></g><g
     id="g26"
     transform="matrix(1.3333333,0,0,-1.3333333,-127.46667,1077.2347)"><path
       inkscape:connector-curvature="0"
       d="m 192,704 50.282,39.594"
       style="fill:none;stroke:#000000;stroke-width:0.80000001;stroke-linecap:butt;stroke-linejoin:round;stroke-miterlimit:10;stroke-dasharray:none;stroke-opacity:1"
       id="path28" /><g
       id="g30"><g
         id="g32"><path
           inkscape:connector-curvature="0"
           d="m 242.282,743.594 -6.941,-2.499 2.884,-3.663 z"
           style="fill:#000000;fill-opacity:1;fill-rule:evenodd;stroke:#000000;stroke-width:0.80000001;stroke-linecap:butt;stroke-linejoin:round;stroke-miterlimit:10;stroke-dasharray:none;stroke-opacity:1"
           id="path34" /></g></g></g><g
     id="g36"
     transform="matrix(1.3333333,0,0,-1.3333333,-127.46667,1077.2347)"><path
       inkscape:connector-curvature="0"
       d="M 96,704 H 288"
       style="fill:none;stroke:#000000;stroke-width:0.80000001;stroke-linecap:butt;stroke-linejoin:round;stroke-miterlimit:10;stroke-dasharray:none;stroke-opacity:1"
       id="path38" /><g
       id="g40"><g
         id="g42"><path
           inkscape:connector-curvature="0"
           d="m 281,706.331 7,-2.331 -7,-2.331"
           style="fill:none;stroke:#000000;stroke-width:0.80000001;stroke-linecap:butt;stroke-linejoin:round;stroke-miterlimit:10;stroke-dasharray:none;stroke-opacity:1"
           id="path44" /></g></g></g><g
     id="g46"
     transform="matrix(1.3333333,0,0,-1.3333333,-127.46667,1077.2347)"><path
       inkscape:connector-curvature="0"
       d="M 192,608 V 800"
       style="fill:none;stroke:#000000;stroke-width:0.80000001;stroke-linecap:butt;stroke-linejoin:round;stroke-miterlimit:10;stroke-dasharray:none;stroke-opacity:1"
       id="path48" /><g
       id="g50"><g
         id="g52"><path
           inkscape:connector-curvature="0"
           d="m 189.669,793 2.331,7 2.331,-7"
           style="fill:none;stroke:#000000;stroke-width:0.80000001;stroke-linecap:butt;stroke-linejoin:round;stroke-miterlimit:10;stroke-dasharray:none;stroke-opacity:1"
           id="path54" /></g></g></g><g
     id="g116"
     transform="matrix(1.3333333,0,0,-1.3333333,-127.46667,1077.2347)"><path
       inkscape:connector-curvature="0"
       d="m 220,704 c 0,15.464 -12.536,28 -28,28 -15.464,0 -28,-12.536 -28,-28 0,-15.464 12.536,-28 28,-28 15.464,0 28,12.536 28,28"
       style="fill:none;stroke:#000000;stroke-width:2;stroke-linecap:butt;stroke-linejoin:round;stroke-miterlimit:10;stroke-dasharray:1, 3;stroke-dashoffset:0;stroke-opacity:1"
       id="path118" /></g><g
     id="g136"
     transform="matrix(1.3333333,0,0,-1.3333333,-127.46667,1077.2347)"><path
       inkscape:connector-curvature="0"
       d="m 140,776 48,-68"
       style="fill:none;stroke:#000000;stroke-width:0.80000001;stroke-linecap:butt;stroke-linejoin:round;stroke-miterlimit:10;stroke-dasharray:none;stroke-opacity:1"
       id="path138" /><g
       id="g140"><g
         id="g142"><path
           inkscape:connector-curvature="0"
           d="m 188,708 -2.132,7.063 -1.097,-2.488 -2.712,-0.2 z"
           style="fill:#ffffff;fill-opacity:1;fill-rule:evenodd;stroke:#000000;stroke-width:0.80000001;stroke-linecap:butt;stroke-linejoin:round;stroke-miterlimit:10;stroke-dasharray:none;stroke-opacity:1"
           id="path144" /></g></g></g><g
     id="g162"
     transform="matrix(1.3333333,0,0,-1.3333333,-127.46667,1077.2347)"><path
       inkscape:connector-curvature="0"
       d="m 228,632 4,16"
       style="fill:none;stroke:#000000;stroke-width:0.80000001;stroke-linecap:butt;stroke-linejoin:round;stroke-miterlimit:10;stroke-dasharray:none;stroke-opacity:1"
       id="path164" /><g
       id="g166"><g
         id="g168"><path
           inkscape:connector-curvature="0"
           d="m 232,648 -3.959,-6.226 2.601,0.793 1.922,-1.923 z"
           style="fill:#ffffff;fill-opacity:1;fill-rule:evenodd;stroke:#000000;stroke-width:0.80000001;stroke-linecap:butt;stroke-linejoin:round;stroke-miterlimit:10;stroke-dasharray:none;stroke-opacity:1"
           id="path170" /></g></g></g><g
     id="g172"
     transform="matrix(1.3333333,0,0,-1.3333333,-127.46667,1077.2347)"><path
       inkscape:connector-curvature="0"
       d="m 224,632 -20,40"
       style="fill:none;stroke:#000000;stroke-width:0.80000001;stroke-linecap:butt;stroke-linejoin:round;stroke-miterlimit:10;stroke-dasharray:none;stroke-opacity:1"
       id="path174" /><g
       id="g176"><g
         id="g178"><path
           inkscape:connector-curvature="0"
           d="m 204,672 1.046,-7.303 1.458,2.294 2.711,-0.21 z"
           style="fill:#ffffff;fill-opacity:1;fill-rule:evenodd;stroke:#000000;stroke-width:0.80000001;stroke-linecap:butt;stroke-linejoin:round;stroke-miterlimit:10;stroke-dasharray:none;stroke-opacity:1"
           id="path180" /></g></g></g><g
     id="g1080"
     transform="matrix(1.3333333,0,0,1.3333333,-2.9702931,-49.443565)"><g
       word-spacing="normal"
       letter-spacing="normal"
       font-size-adjust="none"
       font-stretch="normal"
       font-weight="normal"
       font-variant="normal"
       font-style="normal"
       stroke-miterlimit="10.433"
       xml:space="preserve"
       transform="matrix(0.36723811,0,0,-0.36723811,-64.26667,200.32599)"
       id="content"
       style="font-style:normal;font-variant:normal;font-weight:normal;font-stretch:normal;letter-spacing:normal;word-spacing:normal;text-anchor:start;fill:none;fill-opacity:1;fill-rule:evenodd;stroke:#000000;stroke-linecap:butt;stroke-linejoin:miter;stroke-miterlimit:10.43299961;stroke-dasharray:none;stroke-dashoffset:0;stroke-opacity:1"><polygon
         id="polygon1075"
         points="464.78,434 465.67,433.11 471.45,438.18 477.19,433.11 478.08,434 471.45,440.78 "
         style="fill:#000000;stroke-width:0" /><path
         inkscape:connector-curvature="0"
         id="path1077"
         d="m 479.73,425.18 0.01,0.04 0.01,0.03 0.02,0.06 0.01,0.05 0.02,0.06 0.01,0.05 0.01,0.04 0.01,0.05 0.01,0.04 0.01,0.04 0.01,0.04 0.01,0.04 0.01,0.04 v 0.03 l 0.01,0.03 v 0.03 l 0.01,0.03 v 0.03 l 0.01,0.03 v 0.05 l 0.01,0.06 v 0.05 0.05 0.05 0.03 0.03 0.03 0.03 c 0,0.91 -0.69,1.35 -1.44,1.35 -0.5,0 -1.29,-0.3 -1.75,-1.05 -0.09,-0.25 -0.5,-1.78 -0.68,-2.69 -0.36,-1.29 -0.71,-2.64 -1,-3.98 l -2.25,-8.97 c -0.19,-0.75 -2.33,-4.23 -5.63,-4.23 -2.53,0 -3.09,2.18 -3.09,4.03 0,2.29 0.86,5.39 2.54,9.76 0.8,2.05 1,2.6 1,3.6 0,2.23 -1.59,4.07 -4.09,4.07 -4.73,0 -6.58,-7.21 -6.58,-7.67 0,-0.5 0.5,-0.5 0.61,-0.5 0.5,0 0.55,0.11 0.8,0.91 1.34,4.69 3.33,6.17 5.03,6.17 0.39,0 1.25,0 1.25,-1.59 0,-1.25 -0.5,-2.53 -0.86,-3.49 -1.98,-5.28 -2.89,-8.12 -2.89,-10.47 0,-4.42 3.14,-5.92 6.08,-5.92 1.95,0 3.64,0.85 5.03,2.24 -0.64,-2.58 -1.23,-5.03 -3.23,-7.68 -1.3,-1.68 -3.19,-3.14 -5.49,-3.14 -0.69,0 -2.94,0.16 -3.78,2.1 0.8,0 1.45,0 2.14,0.61 0.5,0.43 1,1.09 1,2.03 0,1.55 -1.34,1.75 -1.84,1.75 -1.14,0 -2.8,-0.8 -2.8,-3.24 0,-2.5 2.2,-4.34 5.28,-4.34 5.14,0 10.27,4.55 11.67,10.17 z"
         style="fill:#000000;stroke-width:0" /></g></g><g
     id="g1186"
     transform="matrix(1.3333333,0,0,1.3333333,102.28574,64.225685)"><g
       word-spacing="normal"
       letter-spacing="normal"
       font-size-adjust="none"
       font-stretch="normal"
       font-weight="normal"
       font-variant="normal"
       font-style="normal"
       stroke-miterlimit="10.433"
       xml:space="preserve"
       transform="matrix(0.36723811,0,0,-0.36723811,-64.26667,200.32599)"
       id="g1184"
       style="font-style:normal;font-variant:normal;font-weight:normal;font-stretch:normal;letter-spacing:normal;word-spacing:normal;text-anchor:start;fill:none;fill-opacity:1;fill-rule:evenodd;stroke:#000000;stroke-linecap:butt;stroke-linejoin:miter;stroke-miterlimit:10.43299961;stroke-dasharray:none;stroke-dashoffset:0;stroke-opacity:1"><polygon
         id="polygon1180"
         points="464.54,434 465.43,433.11 471.21,438.18 476.95,433.11 477.84,434 471.21,440.78 "
         style="fill:#000000;stroke-width:0" /><path
         inkscape:connector-curvature="0"
         id="path1182"
         d="m 472.16,421.25 0.03,0.13 0.03,0.15 0.04,0.16 0.05,0.18 0.05,0.19 0.06,0.21 0.07,0.22 0.07,0.22 0.08,0.23 0.09,0.24 0.09,0.25 0.11,0.24 0.11,0.25 0.12,0.25 0.13,0.25 0.13,0.25 0.15,0.24 0.16,0.24 0.16,0.23 0.18,0.22 0.19,0.22 0.2,0.2 0.21,0.19 0.22,0.18 0.23,0.16 0.24,0.14 0.13,0.07 0.13,0.06 0.13,0.05 0.14,0.05 0.14,0.05 0.14,0.04 0.15,0.03 0.15,0.03 0.15,0.02 0.15,0.02 0.16,0.01 h 0.16 c 0.25,0 1.44,0 2.49,-0.64 -1.39,-0.25 -2.39,-1.5 -2.39,-2.69 0,-0.79 0.54,-1.75 1.89,-1.75 1.09,0 2.69,0.89 2.69,2.89 0,2.6 -2.94,3.28 -4.63,3.28 -2.89,0 -4.64,-2.64 -5.23,-3.78 -1.25,3.28 -3.94,3.78 -5.38,3.78 -5.19,0 -8.03,-6.42 -8.03,-7.67 0,-0.5 0.5,-0.5 0.61,-0.5 0.39,0 0.55,0.11 0.64,0.55 1.69,5.28 4.98,6.53 6.67,6.53 0.96,0 2.69,-0.44 2.69,-3.33 0,-1.54 -0.84,-4.89 -2.69,-11.86 -0.8,-3.09 -2.53,-5.18 -4.73,-5.18 -0.3,0 -1.44,0 -2.49,0.65 1.25,0.24 2.35,1.28 2.35,2.69 0,1.34 -1.1,1.73 -1.85,1.73 -1.5,0 -2.75,-1.29 -2.75,-2.89 0,-2.28 2.5,-3.28 4.69,-3.28 3.3,0 5.08,3.49 5.24,3.78 0.59,-1.84 2.39,-3.78 5.37,-3.78 5.14,0 7.98,6.42 7.98,7.67 0,0.5 -0.45,0.5 -0.61,0.5 -0.43,0 -0.54,-0.2 -0.64,-0.54 -1.64,-5.33 -5.03,-6.53 -6.62,-6.53 -1.95,0 -2.75,1.59 -2.75,3.29 0,1.1 0.3,2.19 0.86,4.38 z"
         style="fill:#000000;stroke-width:0" /></g></g><g
     id="g1570"
     transform="matrix(1.3333333,0,0,1.3333333,-134.14631,-29.910299)"><g
       word-spacing="normal"
       letter-spacing="normal"
       font-size-adjust="none"
       font-stretch="normal"
       font-weight="normal"
       font-variant="normal"
       font-style="normal"
       stroke-miterlimit="10.433"
       xml:space="preserve"
       transform="matrix(0.36723811,0,0,-0.36723811,-64.26667,200.32599)"
       id="g1568"
       style="font-style:normal;font-variant:normal;font-weight:normal;font-stretch:normal;letter-spacing:normal;word-spacing:normal;text-anchor:start;fill:none;fill-opacity:1;fill-rule:evenodd;stroke:#000000;stroke-linecap:butt;stroke-linejoin:miter;stroke-miterlimit:10.43299961;stroke-dasharray:none;stroke-dashoffset:0;stroke-opacity:1"><path
         inkscape:connector-curvature="0"
         id="path1534"
         d="m 471.16,430.25 -0.02,0.05 -0.02,0.05 -0.02,0.04 -0.01,0.05 -0.02,0.04 -0.02,0.04 -0.02,0.04 -0.01,0.04 -0.02,0.04 -0.02,0.03 -0.02,0.04 -0.02,0.03 -0.02,0.03 -0.03,0.03 -0.02,0.02 -0.02,0.03 -0.03,0.02 -0.03,0.03 -0.03,0.02 -0.03,0.02 -0.03,0.01 -0.03,0.02 -0.04,0.01 -0.04,0.02 -0.04,0.01 -0.04,0.01 h -0.05 l -0.05,0.01 -0.05,0.01 h -0.05 -0.06 -0.06 c -0.67,0 -0.76,-0.25 -0.98,-0.79 l -8.05,-20.39 c -0.34,-0.88 -0.94,-2.41 -4.08,-2.41 v -1.25 c 1.19,0.11 2.41,0.14 3.6,0.14 1.39,0 3.96,-0.14 4.18,-0.14 v 1.25 c -1.53,0 -2.51,0.7 -2.51,1.67 0,0.28 0.03,0.36 0.17,0.7 l 1.67,4.29 0.5,1.26 4.45,11.31 4.46,-11.31 h -8.91 l -0.5,-1.26 h 9.91 l 2.01,-5.08 c 0.07,-0.19 0.18,-0.42 0.18,-0.6 0,-0.98 -1.88,-0.98 -2.83,-0.98 v -1.25 c 1.75,0.06 3.98,0.14 5.2,0.14 1.64,0 4.25,-0.11 4.63,-0.14 v 1.25 h -0.69 c -2.35,0 -2.58,0.36 -2.97,1.33 z"
         style="fill:#000000;stroke-width:0" /><path
         inkscape:connector-curvature="0"
         id="path1536"
         d="m 496.73,414.01 v 0 0.01 h -0.01 v 0 0 0.01 h -0.01 v 0 0.01 h -0.01 l -0.01,0.01 -0.01,0.01 -0.01,0.01 -0.01,0.02 -0.01,0.01 -0.01,0.01 -0.01,0.02 -0.01,0.01 -0.02,0.01 -0.02,0.03 -0.03,0.03 -0.01,0.02 -0.01,0.01 -0.01,0.01 -0.01,0.02 -0.01,0.01 -0.01,0.01 -0.01,0.01 -0.01,0.01 v 0.01 0 l -0.01,0.01 v 0 0.01 0 h -0.01 v 0.01 0 0 0 0.01 c 0,0.1 2.3,2.57 2.61,2.89 1.22,1.36 2.44,2.68 5.2,2.71 v 1.25 c -0.98,-0.06 -1.98,-0.14 -2.94,-0.14 -1.04,0 -2.4,0.04 -3.43,0.14 v -1.25 c 0.57,-0.1 0.68,-0.48 0.68,-0.79 0,-0.08 0,-0.6 -0.51,-1.19 l -2.44,-2.75 -2.89,3.3 c -0.36,0.39 -0.39,0.56 -0.39,0.7 0,0.52 0.48,0.73 0.94,0.73 v 1.25 c -1.28,-0.1 -2.61,-0.14 -3.91,-0.14 -1.03,0 -2.36,0.04 -3.37,0.14 v -1.25 c 1.61,0 2.51,0 3.42,-1.04 l 4.34,-5.02 c 0.05,-0.03 0.28,-0.31 0.28,-0.34 0,-0.11 -2.61,-2.97 -2.95,-3.36 -1.3,-1.39 -2.48,-2.67 -5.27,-2.75 v -1.25 c 1.05,0.06 1.82,0.14 2.89,0.14 1.05,0 2.44,-0.03 3.49,-0.14 v 1.25 c -0.42,0.08 -0.7,0.31 -0.7,0.81 0,0.66 0.39,1.11 0.95,1.7 l 2.44,2.69 3.03,-3.45 c 0.65,-0.74 0.65,-0.81 0.65,-1.02 0,-0.68 -0.79,-0.73 -0.93,-0.73 v -1.25 c 0.31,0.03 2.82,0.14 3.93,0.14 1.11,0 2.24,-0.03 3.35,-0.14 v 1.25 c -2.33,0 -2.61,0.22 -3.42,1.12 z"
         style="fill:#000000;stroke-width:0" /><path
         inkscape:connector-curvature="0"
         id="path1538"
         d="m 513.16,427.7 -0.01,0.09 v 0.1 l -0.02,0.09 -0.01,0.1 -0.02,0.09 -0.03,0.09 -0.03,0.09 -0.03,0.09 -0.04,0.08 -0.05,0.09 -0.04,0.08 -0.05,0.08 -0.06,0.08 -0.06,0.08 -0.06,0.07 -0.06,0.07 -0.07,0.07 -0.08,0.06 -0.07,0.07 -0.08,0.05 -0.08,0.06 -0.09,0.05 -0.09,0.04 -0.09,0.05 -0.09,0.03 -0.1,0.04 -0.1,0.03 -0.1,0.02 -0.1,0.02 -0.11,0.01 -0.1,0.01 h -0.12 c -1.04,0 -1.98,-0.82 -1.98,-1.98 0,-1.25 1.02,-2.02 1.98,-2.02 1.13,0 2.04,0.86 2.04,2.02 z"
         style="fill:#000000;stroke-width:0" /><path
         inkscape:connector-curvature="0"
         id="path1540"
         d="m 507.86,421.18 v -1.25 c 2.19,0 2.5,-0.22 2.5,-1.92 v -9.06 c 0,-1.5 -0.34,-1.5 -2.61,-1.5 v -1.25 c 0.06,0 2.5,0.14 3.91,0.14 1.22,0 2.46,-0.03 3.68,-0.14 v 1.25 c -2.01,0 -2.37,0 -2.37,1.47 v 12.64 z"
         style="fill:#000000;stroke-width:0" /><path
         inkscape:connector-curvature="0"
         id="path1542"
         d="m 530.28,420.84 v 0.05 0.06 0.05 0.05 0.05 l -0.01,0.04 v 0.05 0.04 0.04 l -0.01,0.04 v 0.04 l -0.01,0.04 -0.01,0.03 v 0.04 l -0.01,0.03 -0.01,0.03 -0.02,0.02 -0.01,0.03 -0.01,0.02 -0.02,0.03 -0.02,0.02 -0.02,0.02 -0.02,0.01 -0.03,0.02 -0.02,0.01 -0.03,0.01 -0.03,0.01 -0.04,0.01 h -0.01 l -0.02,0.01 h -0.02 -0.02 -0.02 l -0.02,0.01 h -0.02 -0.03 c -0.17,0 -0.25,0 -0.7,-0.43 -0.06,-0.03 -0.41,-0.34 -0.62,-0.53 -1.05,0.74 -2.37,0.96 -3.66,0.96 -4.99,0 -6.17,-2.63 -6.17,-4.36 0,-1.13 0.5,-2.02 1.33,-2.72 1.32,-1.16 2.65,-1.39 4.81,-1.75 1.73,-0.31 4.56,-0.8 4.56,-3.13 0,-1.36 -0.94,-2.97 -4.28,-2.97 -3.34,0 -4.56,2.21 -5.21,4.57 -0.09,0.45 -0.13,0.59 -0.62,0.59 -0.59,0 -0.59,-0.23 -0.59,-0.94 v -4.28 c 0,-0.59 0,-0.9 0.5,-0.9 0.31,0 0.96,0.73 1.67,1.5 1.53,-1.44 3.41,-1.5 4.25,-1.5 4.53,0 6.2,2.43 6.2,4.9 0,1.33 -0.59,2.38 -1.5,3.2 -1.33,1.22 -2.94,1.5 -4.16,1.72 -2.78,0.49 -5.04,0.91 -5.04,2.75 0,1.11 0.94,2.47 4.25,2.47 4.04,0 4.22,-2.83 4.28,-3.83 0.05,-0.39 0.45,-0.39 0.59,-0.39 0.6,0 0.6,0.25 0.6,0.91 z"
         style="fill:#000000;stroke-width:0" /><polygon
         id="polygon1544"
         points="543.85,414.87 533.62,414.87 533.62,412.51 543.85,412.51 "
         style="fill:#000000;stroke-width:0" /><path
         inkscape:connector-curvature="0"
         id="path1546"
         d="m 564.79,413.62 -0.01,0.41 -0.03,0.4 -0.06,0.4 -0.07,0.39 -0.09,0.39 -0.12,0.38 -0.13,0.37 -0.15,0.37 -0.17,0.36 -0.18,0.35 -0.21,0.34 -0.22,0.33 -0.23,0.32 -0.25,0.31 -0.27,0.29 -0.28,0.29 -0.29,0.27 -0.31,0.26 -0.32,0.24 -0.34,0.23 -0.34,0.22 -0.36,0.2 -0.37,0.18 -0.38,0.17 -0.39,0.15 -0.4,0.13 -0.41,0.11 -0.42,0.1 -0.42,0.07 -0.44,0.05 -0.44,0.04 -0.45,0.01 v -0.99 c 2.06,0 3.53,-0.97 4.3,-2.05 0.97,-1.35 1.08,-3.1 1.08,-4.78 0,-1.67 -0.11,-3.51 -1.13,-4.95 -0.94,-1.31 -2.53,-2.02 -4.25,-2.02 v 0 c -1.28,0 -3.17,0.43 -4.31,2.13 -0.94,1.44 -1.05,3.23 -1.05,4.84 0,1.5 0.03,3.57 1.25,5.05 0.88,1.02 2.35,1.78 4.11,1.78 v 0.99 c -4.79,0 -8.53,-3.77 -8.53,-8.13 0,-4.33 3.83,-7.76 8.53,-7.76 4.71,0 8.55,3.43 8.55,7.76 z"
         style="fill:#000000;stroke-width:0" /><path
         inkscape:connector-curvature="0"
         id="path1548"
         d="m 573.32,419.96 h 4.36 v 1.25 h -4.5 v 3.91 c 0,3.17 1.89,4.64 3.39,4.64 0.31,0 0.66,-0.08 1,-0.19 -0.48,-0.26 -0.77,-0.82 -0.77,-1.39 0,-0.93 0.68,-1.59 1.61,-1.59 0.94,0 1.61,0.66 1.61,1.59 0,1.5 -1.5,2.55 -3.42,2.55 -2.75,0 -5.89,-1.95 -5.89,-5.61 v -3.91 h -3 v -1.25 h 3 v -11.01 c 0,-1.5 -0.34,-1.5 -2.61,-1.5 v -1.25 c 0.17,0 2.55,0.14 3.97,0.14 1.5,0 3.03,-0.08 4.53,-0.14 v 1.25 h -0.7 c -2.58,0 -2.58,0.39 -2.58,1.58 z"
         style="fill:#000000;stroke-width:0" /><polygon
         id="polygon1550"
         points="589.45,414.87 579.21,414.87 579.21,412.51 589.45,412.51 "
         style="fill:#000000;stroke-width:0" /><path
         inkscape:connector-curvature="0"
         id="path1552"
         d="m 605.15,420.84 v 0.05 0.06 0.05 0.05 0.05 l -0.01,0.04 v 0.05 0.04 0.04 l -0.01,0.04 v 0.04 l -0.01,0.04 v 0.03 l -0.01,0.04 -0.01,0.03 -0.01,0.03 -0.01,0.02 -0.02,0.03 -0.01,0.02 -0.02,0.03 -0.02,0.02 -0.02,0.02 -0.02,0.01 -0.03,0.02 -0.02,0.01 -0.03,0.01 -0.03,0.01 -0.04,0.01 h -0.01 l -0.02,0.01 h -0.02 -0.02 -0.02 l -0.02,0.01 h -0.02 -0.03 c -0.17,0 -0.25,0 -0.7,-0.43 -0.06,-0.03 -0.41,-0.34 -0.62,-0.53 -1.05,0.74 -2.36,0.96 -3.66,0.96 -4.98,0 -6.17,-2.63 -6.17,-4.36 0,-1.13 0.5,-2.02 1.33,-2.72 1.32,-1.16 2.65,-1.39 4.81,-1.75 1.73,-0.31 4.56,-0.8 4.56,-3.13 0,-1.36 -0.94,-2.97 -4.28,-2.97 -3.34,0 -4.56,2.21 -5.2,4.57 -0.1,0.45 -0.14,0.59 -0.63,0.59 -0.59,0 -0.59,-0.23 -0.59,-0.94 v -4.28 c 0,-0.59 0,-0.9 0.5,-0.9 0.31,0 0.97,0.73 1.67,1.5 1.53,-1.44 3.41,-1.5 4.25,-1.5 4.53,0 6.2,2.43 6.2,4.9 0,1.33 -0.59,2.38 -1.5,3.2 -1.33,1.22 -2.93,1.5 -4.15,1.72 -2.78,0.49 -5.05,0.91 -5.05,2.75 0,1.11 0.94,2.47 4.25,2.47 4.05,0 4.22,-2.83 4.28,-3.83 0.05,-0.39 0.45,-0.39 0.59,-0.39 0.6,0 0.6,0.25 0.6,0.91 z"
         style="fill:#000000;stroke-width:0" /><path
         inkscape:connector-curvature="0"
         id="path1554"
         d="m 624.27,417.81 0.05,0.1 0.04,0.09 0.05,0.09 0.05,0.09 0.05,0.09 0.05,0.08 0.11,0.16 0.11,0.15 0.11,0.14 0.11,0.12 0.12,0.12 0.11,0.11 0.12,0.1 0.12,0.09 0.13,0.09 0.12,0.07 0.12,0.07 0.12,0.06 0.12,0.05 0.12,0.05 0.11,0.04 0.12,0.04 0.11,0.03 0.11,0.03 0.11,0.02 0.1,0.02 0.1,0.02 0.1,0.01 0.09,0.01 h 0.09 l 0.08,0.01 h 0.07 0.07 0.07 0.05 v 1.25 c -0.98,-0.06 -1.64,-0.14 -2.65,-0.14 -0.94,0 -2.24,0.04 -3.18,0.14 v -1.25 c 1.16,-0.07 1.44,-0.76 1.44,-1.32 0,-0.43 -0.17,-0.74 -0.31,-1.08 l -3.88,-8.27 -4.28,9.21 c -0.11,0.21 -0.22,0.42 -0.22,0.67 0,0.79 1.19,0.79 1.78,0.79 v 1.25 c -0.51,-0.03 -3.03,-0.14 -4,-0.14 -1.04,0 -2.4,0.04 -3.42,0.14 v -1.25 c 1.96,0 2.35,-0.1 2.86,-1.21 l 5.86,-12.55 c -0.31,-0.7 -0.67,-1.36 -0.98,-2.06 -0.77,-1.68 -1.88,-4.07 -4.25,-4.07 -0.88,0 -1.14,0.18 -1.5,0.41 0.03,0 1.01,0.36 1.01,1.5 0,0.88 -0.62,1.5 -1.5,1.5 -0.9,0 -1.53,-0.62 -1.53,-1.53 0,-1.64 1.64,-2.86 3.52,-2.86 2.97,0 4.67,3.11 5.15,4.14 z"
         style="fill:#000000;stroke-width:0" /><path
         inkscape:connector-curvature="0"
         id="path1556"
         d="m 657.3,416.76 v 0.28 l -0.01,0.28 -0.03,0.26 -0.03,0.26 -0.04,0.25 -0.05,0.24 -0.06,0.23 -0.07,0.23 -0.08,0.22 -0.09,0.21 -0.1,0.2 -0.11,0.19 -0.12,0.19 -0.13,0.17 -0.14,0.17 -0.15,0.16 -0.16,0.15 -0.18,0.14 -0.18,0.13 -0.2,0.12 -0.21,0.11 -0.22,0.11 -0.23,0.09 -0.24,0.09 -0.25,0.07 -0.27,0.07 -0.28,0.05 -0.29,0.05 -0.31,0.03 -0.31,0.03 -0.33,0.01 -0.34,0.01 c -2.77,0 -4.64,-1.49 -5.58,-3.24 -0.71,2.47 -2.58,3.24 -5.13,3.24 -2.86,0 -4.7,-1.56 -5.68,-3.38 h -0.04 v 3.38 l -5.12,-0.38 v -1.25 c 2.34,0 2.62,-0.25 2.62,-1.95 v -9.03 c 0,-1.5 -0.36,-1.5 -2.62,-1.5 v -1.25 c 0.08,0 2.51,0.14 3.98,0.14 1.28,0 3.69,-0.11 4,-0.14 v 1.25 c -2.26,0 -2.61,0 -2.61,1.5 v 6.28 c 0,3.66 2.89,5.36 5.19,5.36 2.44,0 2.75,-1.92 2.75,-3.69 v -7.95 c 0,-1.5 -0.34,-1.5 -2.61,-1.5 v -1.25 c 0.08,0 2.52,0.14 3.97,0.14 1.3,0 3.7,-0.11 4.02,-0.14 v 1.25 c -2.27,0 -2.63,0 -2.63,1.5 v 6.28 c 0,3.66 2.91,5.36 5.2,5.36 2.44,0 2.75,-1.92 2.75,-3.69 v -7.95 c 0,-1.5 -0.34,-1.5 -2.6,-1.5 v -1.25 c 0.06,0 2.5,0.14 3.96,0.14 1.29,0 3.69,-0.11 4,-0.14 v 1.25 c -2.26,0 -2.61,0 -2.61,1.5 z"
         style="fill:#000000;stroke-width:0" /><path
         inkscape:connector-curvature="0"
         id="path1558"
         d="m 690.06,416.76 v 0.28 l -0.01,0.28 -0.03,0.26 -0.03,0.26 -0.04,0.25 -0.05,0.24 -0.06,0.23 -0.07,0.23 -0.08,0.22 -0.09,0.21 -0.1,0.2 -0.11,0.19 -0.12,0.19 -0.13,0.17 -0.14,0.17 -0.15,0.16 -0.16,0.15 -0.18,0.14 -0.18,0.13 -0.2,0.12 -0.21,0.11 -0.22,0.11 -0.23,0.09 -0.24,0.09 -0.26,0.07 -0.26,0.07 -0.28,0.05 -0.29,0.05 -0.31,0.03 -0.31,0.03 -0.33,0.01 -0.35,0.01 c -2.76,0 -4.64,-1.49 -5.57,-3.24 -0.71,2.47 -2.58,3.24 -5.13,3.24 -2.86,0 -4.7,-1.56 -5.69,-3.38 h -0.03 v 3.38 l -5.12,-0.38 v -1.25 c 2.34,0 2.62,-0.25 2.62,-1.95 v -9.03 c 0,-1.5 -0.36,-1.5 -2.62,-1.5 v -1.25 c 0.08,0 2.51,0.14 3.98,0.14 1.28,0 3.69,-0.11 4,-0.14 v 1.25 c -2.26,0 -2.61,0 -2.61,1.5 v 6.28 c 0,3.66 2.89,5.36 5.19,5.36 2.44,0 2.75,-1.92 2.75,-3.69 v -7.95 c 0,-1.5 -0.34,-1.5 -2.61,-1.5 v -1.25 c 0.08,0 2.52,0.14 3.97,0.14 1.3,0 3.7,-0.11 4.01,-0.14 v 1.25 c -2.26,0 -2.62,0 -2.62,1.5 v 6.28 c 0,3.66 2.91,5.36 5.2,5.36 2.44,0 2.75,-1.92 2.75,-3.69 v -7.95 c 0,-1.5 -0.34,-1.5 -2.61,-1.5 v -1.25 c 0.07,0 2.5,0.14 3.97,0.14 1.28,0 3.69,-0.11 4,-0.14 v 1.25 c -2.26,0 -2.61,0 -2.61,1.5 z"
         style="fill:#000000;stroke-width:0" /><path
         inkscape:connector-curvature="0"
         id="path1560"
         d="m 709.51,414.14 h 0.07 0.06 0.06 0.06 0.06 0.05 l 0.05,0.01 h 0.05 0.05 l 0.04,0.01 0.04,0.01 0.04,0.01 0.04,0.01 0.03,0.01 0.04,0.02 0.03,0.01 0.02,0.02 0.03,0.03 0.02,0.02 0.02,0.03 0.02,0.03 0.02,0.03 0.01,0.02 0.01,0.02 v 0.02 l 0.01,0.02 0.01,0.02 v 0.02 l 0.01,0.02 v 0.03 l 0.01,0.02 v 0.03 l 0.01,0.02 v 0.03 0.03 l 0.01,0.03 v 0.03 0.03 0.03 0.04 0.03 0.04 c 0,3.06 -1.72,6.83 -6.9,6.83 -4.57,0 -8.05,-3.63 -8.05,-7.93 0,-4.42 3.87,-7.96 8.5,-7.96 4.7,0 6.45,3.76 6.45,4.53 0,0.14 -0.08,0.48 -0.59,0.48 -0.45,0 -0.53,-0.22 -0.63,-0.56 -1.09,-2.81 -3.73,-3.35 -4.98,-3.35 -1.64,0 -3.2,0.74 -4.25,2.07 -1.3,1.62 -1.33,3.75 -1.33,5.11 l 0.03,0.9 c 0.39,4.92 3.52,5.72 4.85,5.72 4.28,0 4.42,-4.84 4.46,-5.72 h -9.31 l -0.03,-0.9 z"
         style="fill:#000000;stroke-width:0" /><path
         inkscape:connector-curvature="0"
         id="path1562"
         d="m 718.94,419.96 h 5.44 v 1.25 h -5.44 v 6.41 h -1.19 c -0.03,-3.12 -1.45,-6.58 -4.8,-6.69 v -0.97 h 3.24 v -9.4 c 0,-3.91 2.92,-4.7 4.87,-4.7 2.35,0 3.94,1.98 3.94,4.73 v 1.92 h -1.19 v -1.89 c 0,-2.36 -1.11,-3.66 -2.47,-3.66 -2.4,0 -2.4,2.93 -2.4,3.57 z"
         style="fill:#000000;stroke-width:0" /><path
         inkscape:connector-curvature="0"
         id="path1564"
         d="m 734.47,414.14 0.01,0.27 0.01,0.28 0.02,0.28 0.03,0.29 0.03,0.28 0.05,0.28 0.05,0.28 0.07,0.28 0.07,0.28 0.08,0.28 0.09,0.26 0.1,0.27 0.11,0.26 0.11,0.25 0.13,0.25 0.14,0.23 0.14,0.23 0.16,0.22 0.16,0.21 0.18,0.2 0.19,0.19 0.19,0.17 0.21,0.17 0.22,0.14 0.23,0.14 0.23,0.12 0.25,0.1 0.26,0.08 0.27,0.07 0.29,0.05 0.29,0.03 0.31,0.01 c -0.32,-0.25 -0.6,-0.7 -0.6,-1.25 0,-1.16 0.91,-1.61 1.56,-1.61 0.85,0 1.61,0.56 1.61,1.61 0,1.19 -1.12,2.22 -2.76,2.22 -1.74,0 -3.66,-1.08 -4.71,-3.72 h -0.03 v 3.72 l -4.98,-0.38 v -1.25 c 2.34,0 2.62,-0.25 2.62,-1.95 v -9.03 c 0,-1.5 -0.36,-1.5 -2.62,-1.5 v -1.25 c 0.17,0 2.54,0.14 3.97,0.14 1.5,0 3.04,-0.08 4.53,-0.14 v 1.25 h -0.69 c -2.58,0 -2.58,0.39 -2.58,1.58 z"
         style="fill:#000000;stroke-width:0" /><path
         inkscape:connector-curvature="0"
         id="path1566"
         d="m 759.62,417.81 0.04,0.1 0.05,0.09 0.05,0.09 0.05,0.09 0.05,0.09 0.05,0.08 0.1,0.16 0.11,0.15 0.11,0.14 0.12,0.12 0.11,0.12 0.12,0.11 0.12,0.1 0.12,0.09 0.12,0.09 0.12,0.07 0.13,0.07 0.12,0.06 0.12,0.05 0.11,0.05 0.12,0.04 0.12,0.04 0.11,0.03 0.11,0.03 0.11,0.02 0.1,0.02 0.1,0.02 0.1,0.01 0.09,0.01 h 0.08 l 0.09,0.01 h 0.07 0.07 0.06 0.06 v 1.25 c -0.98,-0.06 -1.64,-0.14 -2.66,-0.14 -0.93,0 -2.23,0.04 -3.17,0.14 v -1.25 c 1.16,-0.07 1.44,-0.76 1.44,-1.32 0,-0.43 -0.17,-0.74 -0.31,-1.08 l -3.88,-8.27 -4.28,9.21 c -0.11,0.21 -0.22,0.42 -0.22,0.67 0,0.79 1.19,0.79 1.78,0.79 v 1.25 c -0.51,-0.03 -3.03,-0.14 -4,-0.14 -1.04,0 -2.4,0.04 -3.42,0.14 v -1.25 c 1.95,0 2.34,-0.1 2.86,-1.21 l 5.86,-12.55 c -0.31,-0.7 -0.67,-1.36 -0.98,-2.06 -0.77,-1.68 -1.88,-4.07 -4.25,-4.07 -0.88,0 -1.15,0.18 -1.5,0.41 0.03,0 1.01,0.36 1.01,1.5 0,0.88 -0.62,1.5 -1.5,1.5 -0.91,0 -1.53,-0.62 -1.53,-1.53 0,-1.64 1.64,-2.86 3.52,-2.86 2.96,0 4.67,3.11 5.15,4.14 z"
         style="fill:#000000;stroke-width:0" /></g></g><g
     id="g1712"
     transform="matrix(1.3333333,0,0,1.3333333,-26.682459,182.4792)"><g
       word-spacing="normal"
       letter-spacing="normal"
       font-size-adjust="none"
       font-stretch="normal"
       font-weight="normal"
       font-variant="normal"
       font-style="normal"
       stroke-miterlimit="10.433"
       xml:space="preserve"
       transform="matrix(0.36723811,0,0,-0.36723811,-64.26667,200.32599)"
       id="g1710"
       style="font-style:normal;font-variant:normal;font-weight:normal;font-stretch:normal;letter-spacing:normal;word-spacing:normal;text-anchor:start;fill:none;fill-opacity:1;fill-rule:evenodd;stroke:#000000;stroke-linecap:butt;stroke-linejoin:miter;stroke-miterlimit:10.43299961;stroke-dasharray:none;stroke-dashoffset:0;stroke-opacity:1"><path
         inkscape:connector-curvature="0"
         id="path1680"
         d="m 464.36,427.14 v 0.11 0.1 l 0.01,0.1 v 0.1 0.09 l 0.01,0.09 0.01,0.08 0.02,0.08 0.02,0.07 0.02,0.08 0.03,0.06 0.03,0.07 0.04,0.06 0.05,0.05 0.06,0.06 0.06,0.05 0.07,0.04 0.04,0.02 0.04,0.02 0.05,0.02 0.04,0.02 0.05,0.02 0.05,0.02 0.05,0.02 0.06,0.01 0.06,0.02 0.06,0.01 0.07,0.02 0.06,0.01 0.08,0.01 0.07,0.01 0.08,0.01 0.08,0.01 0.08,0.01 0.09,0.01 0.09,0.01 h 0.09 l 0.1,0.01 0.1,0.01 h 0.1 0.11 l 0.11,0.01 h 0.12 0.12 0.12 l 0.13,0.01 h 0.13 0.91 V 430 c -0.28,0 -4.03,-0.14 -5.39,-0.14 -1.41,0 -5.24,0.14 -5.44,0.14 v -1.25 h 0.91 c 2.86,0 2.86,-0.43 2.86,-1.61 v -18.08 c 0,-1.19 0,-1.61 -2.86,-1.61 h -0.91 v -1.25 c 0.28,0 4.03,0.14 5.39,0.14 1.41,0 5.24,-0.14 5.44,-0.14 v 1.25 h -0.91 c -2.86,0 -2.86,0.42 -2.86,1.61 z"
         style="fill:#000000;stroke-width:0" /><path
         inkscape:connector-curvature="0"
         id="path1682"
         d="m 487.86,416.76 -0.01,0.28 -0.01,0.28 -0.02,0.26 -0.04,0.26 -0.04,0.25 -0.05,0.24 -0.06,0.23 -0.07,0.23 -0.07,0.22 -0.09,0.21 -0.1,0.2 -0.11,0.19 -0.12,0.19 -0.13,0.17 -0.14,0.17 -0.15,0.16 -0.17,0.15 -0.17,0.14 -0.18,0.13 -0.2,0.12 -0.21,0.11 -0.22,0.11 -0.23,0.09 -0.24,0.09 -0.26,0.07 -0.26,0.07 -0.28,0.05 -0.3,0.05 -0.3,0.03 -0.32,0.03 -0.33,0.01 -0.34,0.01 c -2.86,0 -4.71,-1.56 -5.69,-3.38 h -0.03 v 3.38 l -5.13,-0.38 v -1.25 c 2.35,0 2.63,-0.25 2.63,-1.95 v -9.03 c 0,-1.5 -0.36,-1.5 -2.63,-1.5 v -1.25 c 0.08,0 2.52,0.14 3.99,0.14 1.28,0 3.68,-0.11 4,-0.14 v 1.25 c -2.27,0 -2.61,0 -2.61,1.5 v 6.28 c 0,3.66 2.89,5.36 5.19,5.36 2.43,0 2.75,-1.92 2.75,-3.69 v -7.95 c 0,-1.5 -0.35,-1.5 -2.61,-1.5 v -1.25 c 0.07,0 2.51,0.14 3.96,0.14 1.3,0 3.71,-0.11 4.02,-0.14 v 1.25 c -2.27,0 -2.62,0 -2.62,1.5 z"
         style="fill:#000000;stroke-width:0" /><path
         inkscape:connector-curvature="0"
         id="path1684"
         d="m 509.81,416.76 v 0.28 l -0.01,0.28 -0.03,0.26 -0.03,0.26 -0.04,0.25 -0.05,0.24 -0.06,0.23 -0.07,0.23 -0.08,0.22 -0.09,0.21 -0.09,0.2 -0.11,0.19 -0.12,0.19 -0.13,0.17 -0.14,0.17 -0.16,0.16 -0.16,0.15 -0.17,0.14 -0.19,0.13 -0.19,0.12 -0.21,0.11 -0.22,0.11 -0.23,0.09 -0.25,0.09 -0.25,0.07 -0.27,0.07 -0.28,0.05 -0.29,0.05 -0.3,0.03 -0.32,0.03 -0.33,0.01 -0.35,0.01 c -2.86,0 -4.7,-1.56 -5.68,-3.38 h -0.03 v 3.38 l -5.13,-0.38 v -1.25 c 2.34,0 2.63,-0.25 2.63,-1.95 v -9.03 c 0,-1.5 -0.36,-1.5 -2.63,-1.5 v -1.25 c 0.08,0 2.52,0.14 3.98,0.14 1.29,0 3.69,-0.11 4,-0.14 v 1.25 c -2.26,0 -2.61,0 -2.61,1.5 v 6.28 c 0,3.66 2.9,5.36 5.19,5.36 2.44,0 2.75,-1.92 2.75,-3.69 v -7.95 c 0,-1.5 -0.34,-1.5 -2.61,-1.5 v -1.25 c 0.08,0 2.52,0.14 3.97,0.14 1.3,0 3.7,-0.11 4.02,-0.14 v 1.25 c -2.27,0 -2.63,0 -2.63,1.5 z"
         style="fill:#000000;stroke-width:0" /><path
         inkscape:connector-curvature="0"
         id="path1686"
         d="m 529.16,414.14 h 0.07 0.06 0.06 0.06 0.06 0.05 l 0.06,0.01 h 0.04 0.05 l 0.04,0.01 0.05,0.01 0.03,0.01 0.04,0.01 0.04,0.01 0.03,0.02 0.03,0.01 0.03,0.02 0.02,0.03 0.03,0.02 0.02,0.03 0.02,0.03 0.01,0.03 0.01,0.02 0.01,0.02 0.01,0.02 v 0.02 l 0.01,0.02 0.01,0.02 v 0.02 l 0.01,0.03 v 0.02 l 0.01,0.03 v 0.02 0.03 l 0.01,0.03 v 0.03 0.03 0.03 0.03 0.04 0.03 l 0.01,0.04 c 0,3.06 -1.72,6.83 -6.91,6.83 -4.56,0 -8.05,-3.63 -8.05,-7.93 0,-4.42 3.88,-7.96 8.5,-7.96 4.71,0 6.46,3.76 6.46,4.53 0,0.14 -0.08,0.48 -0.6,0.48 -0.45,0 -0.53,-0.22 -0.62,-0.56 -1.1,-2.81 -3.74,-3.35 -4.99,-3.35 -1.64,0 -3.2,0.74 -4.25,2.07 -1.29,1.62 -1.33,3.75 -1.33,5.11 l 0.04,0.9 c 0.38,4.92 3.51,5.72 4.84,5.72 4.28,0 4.42,-4.84 4.47,-5.72 h -9.31 l -0.04,-0.9 z"
         style="fill:#000000;stroke-width:0" /><path
         inkscape:connector-curvature="0"
         id="path1688"
         d="m 538.53,414.14 v 0.27 l 0.01,0.28 0.02,0.28 0.03,0.29 0.04,0.28 0.04,0.28 0.06,0.28 0.06,0.28 0.07,0.28 0.08,0.28 0.09,0.26 0.1,0.27 0.11,0.26 0.12,0.25 0.12,0.25 0.14,0.23 0.15,0.23 0.15,0.22 0.17,0.21 0.18,0.2 0.18,0.19 0.2,0.17 0.2,0.17 0.22,0.14 0.23,0.14 0.24,0.12 0.25,0.1 0.26,0.08 0.27,0.07 0.28,0.05 0.29,0.03 0.31,0.01 c -0.31,-0.25 -0.6,-0.7 -0.6,-1.25 0,-1.16 0.91,-1.61 1.57,-1.61 0.84,0 1.61,0.56 1.61,1.61 0,1.19 -1.13,2.22 -2.77,2.22 -1.73,0 -3.66,-1.08 -4.7,-3.72 h -0.03 v 3.72 l -4.99,-0.38 v -1.25 c 2.35,0 2.63,-0.25 2.63,-1.95 v -9.03 c 0,-1.5 -0.36,-1.5 -2.63,-1.5 v -1.25 c 0.18,0 2.55,0.14 3.97,0.14 1.5,0 3.05,-0.08 4.53,-0.14 v 1.25 h -0.69 c -2.57,0 -2.57,0.39 -2.57,1.58 z"
         style="fill:#000000;stroke-width:0" /><path
         inkscape:connector-curvature="0"
         id="path1690"
         d="m 564.36,430.84 0.02,0.04 0.01,0.03 0.02,0.04 0.01,0.03 0.01,0.03 0.02,0.03 0.01,0.03 0.01,0.03 0.01,0.02 0.01,0.03 v 0.02 l 0.01,0.03 0.01,0.02 v 0.02 l 0.01,0.02 v 0.02 l 0.01,0.01 v 0.02 0.02 l 0.01,0.01 v 0.01 0.02 0.01 0.01 l 0.01,0.01 v 0.01 0.01 0.01 0.01 0.01 0.01 c 0,0.6 -0.5,0.88 -0.85,0.88 -0.59,0 -0.76,-0.42 -0.93,-0.88 L 549.8,398.98 c -0.18,-0.41 -0.18,-0.55 -0.18,-0.62 0,-0.6 0.49,-0.88 0.85,-0.88 0.59,0 0.76,0.42 0.94,0.88 z"
         style="fill:#000000;stroke-width:0" /><path
         inkscape:connector-curvature="0"
         id="path1692"
         d="m 585.42,413.62 -0.01,0.41 -0.03,0.4 -0.05,0.4 -0.08,0.39 -0.09,0.39 -0.11,0.38 -0.14,0.37 -0.15,0.37 -0.17,0.36 -0.18,0.35 -0.2,0.34 -0.22,0.33 -0.24,0.32 -0.25,0.31 -0.27,0.29 -0.28,0.29 -0.29,0.27 -0.31,0.26 -0.32,0.24 -0.34,0.23 -0.34,0.22 -0.36,0.2 -0.37,0.18 -0.38,0.17 -0.39,0.15 -0.4,0.13 -0.41,0.11 -0.42,0.1 -0.42,0.07 -0.44,0.05 -0.44,0.04 -0.44,0.01 v -0.99 c 2.06,0 3.53,-0.97 4.29,-2.05 0.97,-1.35 1.08,-3.1 1.08,-4.78 0,-1.67 -0.11,-3.51 -1.13,-4.95 -0.93,-1.31 -2.53,-2.02 -4.24,-2.02 v 0 c -1.29,0 -3.18,0.43 -4.32,2.13 -0.94,1.44 -1.04,3.23 -1.04,4.84 0,1.5 0.03,3.57 1.25,5.05 0.87,1.02 2.34,1.78 4.11,1.78 v 0.99 c -4.8,0 -8.54,-3.77 -8.54,-8.13 0,-4.33 3.83,-7.76 8.54,-7.76 4.7,0 8.54,3.43 8.54,7.76 z"
         style="fill:#000000;stroke-width:0" /><path
         inkscape:connector-curvature="0"
         id="path1694"
         d="m 599.36,421.18 v -1.25 c 2.33,0 2.61,-0.25 2.61,-1.95 v -5.97 c 0,-3.06 -1.99,-5.19 -4.63,-5.19 -3.17,0 -3.31,1.5 -3.31,3.29 v 11.45 l -5.37,-0.38 v -1.25 c 2.62,0 2.62,-0.11 2.62,-3.22 v -5.21 c 0,-2.41 0,-5.64 5.81,-5.64 0.77,0 3.32,0 4.99,2.92 h 0.03 v -2.92 l 5.23,0.34 v 1.25 c -2.34,0 -2.62,0.25 -2.62,1.95 v 12.16 z"
         style="fill:#000000;stroke-width:0" /><path
         inkscape:connector-curvature="0"
         id="path1696"
         d="m 615.74,419.96 h 5.44 v 1.25 h -5.44 v 6.41 h -1.19 c -0.03,-3.12 -1.45,-6.58 -4.8,-6.69 v -0.97 h 3.24 v -9.4 c 0,-3.91 2.92,-4.7 4.87,-4.7 2.35,0 3.94,1.98 3.94,4.73 v 1.92 h -1.19 v -1.89 c 0,-2.36 -1.11,-3.66 -2.46,-3.66 -2.41,0 -2.41,2.93 -2.41,3.57 z"
         style="fill:#000000;stroke-width:0" /><path
         inkscape:connector-curvature="0"
         id="path1698"
         d="m 639.66,414.14 h 0.07 0.07 0.06 0.06 0.05 0.06 l 0.05,0.01 h 0.05 0.04 l 0.05,0.01 0.04,0.01 0.04,0.01 0.03,0.01 0.04,0.01 0.03,0.02 0.03,0.01 0.03,0.02 0.02,0.03 0.03,0.02 0.02,0.03 0.02,0.03 0.02,0.03 0.01,0.02 v 0.02 l 0.01,0.02 0.01,0.02 v 0.02 l 0.01,0.02 0.01,0.02 v 0.03 0.02 l 0.01,0.03 v 0.02 l 0.01,0.03 v 0.03 0.03 0.03 l 0.01,0.03 v 0.03 0.04 0.03 0.04 c 0,3.06 -1.72,6.83 -6.91,6.83 -4.56,0 -8.04,-3.63 -8.04,-7.93 0,-4.42 3.87,-7.96 8.5,-7.96 4.7,0 6.45,3.76 6.45,4.53 0,0.14 -0.08,0.48 -0.6,0.48 -0.45,0 -0.53,-0.22 -0.62,-0.56 -1.09,-2.81 -3.73,-3.35 -4.98,-3.35 -1.65,0 -3.21,0.74 -4.25,2.07 -1.3,1.62 -1.33,3.75 -1.33,5.11 l 0.03,0.9 c 0.39,4.92 3.51,5.72 4.84,5.72 4.28,0 4.42,-4.84 4.47,-5.72 h -9.31 l -0.03,-0.9 z"
         style="fill:#000000;stroke-width:0" /><path
         inkscape:connector-curvature="0"
         id="path1700"
         d="m 649.03,414.14 0.01,0.27 0.01,0.28 0.02,0.28 0.03,0.29 0.03,0.28 0.05,0.28 0.05,0.28 0.07,0.28 0.07,0.28 0.08,0.28 0.09,0.26 0.1,0.27 0.1,0.26 0.12,0.25 0.13,0.25 0.13,0.23 0.15,0.23 0.16,0.22 0.16,0.21 0.18,0.2 0.19,0.19 0.19,0.17 0.21,0.17 0.22,0.14 0.22,0.14 0.24,0.12 0.25,0.1 0.26,0.08 0.27,0.07 0.28,0.05 0.3,0.03 0.3,0.01 c -0.31,-0.25 -0.59,-0.7 -0.59,-1.25 0,-1.16 0.91,-1.61 1.56,-1.61 0.85,0 1.61,0.56 1.61,1.61 0,1.19 -1.12,2.22 -2.76,2.22 -1.74,0 -3.66,-1.08 -4.71,-3.72 h -0.03 v 3.72 l -4.98,-0.38 v -1.25 c 2.34,0 2.62,-0.25 2.62,-1.95 v -9.03 c 0,-1.5 -0.36,-1.5 -2.62,-1.5 v -1.25 c 0.17,0 2.54,0.14 3.97,0.14 1.5,0 3.04,-0.08 4.53,-0.14 v 1.25 h -0.69 c -2.58,0 -2.58,0.39 -2.58,1.58 z"
         style="fill:#000000;stroke-width:0" /><path
         inkscape:connector-curvature="0"
         id="path1702"
         d="m 695.52,417.84 0.07,0.16 0.07,0.15 0.07,0.14 0.08,0.14 0.07,0.13 0.08,0.12 0.08,0.11 0.08,0.11 0.09,0.1 0.09,0.09 0.08,0.09 0.09,0.09 0.09,0.07 0.1,0.07 0.09,0.07 0.09,0.06 0.1,0.06 0.1,0.05 0.09,0.04 0.1,0.05 0.1,0.03 0.1,0.04 0.1,0.03 0.1,0.02 0.1,0.03 0.11,0.02 0.1,0.01 0.1,0.02 0.2,0.02 h 0.21 v 1.25 c -0.94,-0.1 -1.5,-0.14 -2.5,-0.14 -1.05,0 -2.38,0.04 -3.43,0.14 v -1.25 c 1.22,-0.03 1.82,-0.7 1.82,-1.53 0,-0.28 0,-0.36 -0.21,-0.84 l -3.37,-8.67 -3.77,9.51 c -0.08,0.18 -0.17,0.46 -0.17,0.66 0,0.77 0.89,0.87 1.88,0.87 v 1.25 c -1.25,-0.1 -2.52,-0.14 -3.77,-0.14 -1.02,0 -2.05,0.08 -3.06,0.14 v -1.25 c 0.79,0 1.53,0 1.98,-0.28 0.49,-0.34 0.8,-1.5 0.8,-1.53 0,-0.08 -0.06,-0.28 -0.14,-0.42 l -3.27,-8.3 -3.53,9 c -0.2,0.49 -0.2,0.52 -0.2,0.66 0,0.87 1.25,0.87 1.89,0.87 v 1.25 c -0.08,0 -2.55,-0.14 -3.94,-0.14 -1.09,0 -2.2,0.04 -3.28,0.14 v -1.25 c 1.36,0 2.12,0 2.5,-1.01 l 4.84,-12.3 c 0.22,-0.51 0.33,-0.79 0.96,-0.79 0.62,0 0.72,0.28 0.9,0.73 l 3.94,9.95 3.86,-9.86 c 0.22,-0.51 0.34,-0.82 0.98,-0.82 0.63,0 0.72,0.23 0.94,0.79 z"
         style="fill:#000000;stroke-width:0" /><path
         inkscape:connector-curvature="0"
         id="path1704"
         d="m 714.03,415.54 v 0.34 0.33 l -0.01,0.32 -0.01,0.31 -0.01,0.15 -0.01,0.14 -0.02,0.15 -0.02,0.14 -0.02,0.15 -0.03,0.14 -0.03,0.13 -0.04,0.14 -0.04,0.14 -0.04,0.13 -0.05,0.13 -0.06,0.13 -0.06,0.13 -0.07,0.13 -0.07,0.12 -0.08,0.13 -0.09,0.12 -0.1,0.13 -0.1,0.12 -0.11,0.12 -0.12,0.12 -0.13,0.13 -0.14,0.12 -0.14,0.12 c -1.43,1.18 -3.1,1.75 -5.16,1.75 -3.31,0 -5.64,-1.27 -5.64,-3.39 0,-1.11 0.77,-1.71 1.67,-1.71 0.94,0 1.64,0.71 1.64,1.64 0,0.6 -0.28,1.33 -1.22,1.6 1.25,0.87 3.27,0.87 3.49,0.87 1.94,0 4.06,-1.28 4.06,-4.22 v -1.08 -0.9 -3.45 c 0,-3.35 -2.92,-4.29 -4.49,-4.29 -1.78,0 -3.45,1.19 -3.45,2.89 0,1.93 1.67,4.61 7.94,4.85 v 0.9 c -1.91,-0.06 -4.2,-0.17 -6.75,-1.1 -3.14,-1.16 -4.11,-3.07 -4.11,-4.65 0,-3 3.62,-3.85 6.09,-3.85 2.78,0 4.43,1.56 5.16,2.92 0.14,-1.42 1.08,-2.75 2.69,-2.75 0.06,0 3.43,0 3.43,3.31 v 1.91 h -1.17 v -1.88 c 0,-0.34 0,-2.01 -1.29,-2.01 -1.29,0 -1.29,1.62 -1.29,2.07 z"
         style="fill:#000000;stroke-width:0" /><path
         inkscape:connector-curvature="0"
         id="path1706"
         d="M 725.46,430.39 720.24,430 v -1.25 c 2.33,0 2.61,-0.25 2.61,-1.96 v -17.84 c 0,-1.5 -0.35,-1.5 -2.61,-1.5 v -1.25 c 0.06,0 2.5,0.14 3.91,0.14 1.31,0 2.6,-0.03 3.93,-0.14 v 1.25 c -2.26,0 -2.62,0 -2.62,1.5 z"
         style="fill:#000000;stroke-width:0" /><path
         inkscape:connector-curvature="0"
         id="path1708"
         d="M 736.73,430.39 731.52,430 v -1.25 c 2.32,0 2.6,-0.25 2.6,-1.96 v -17.84 c 0,-1.5 -0.34,-1.5 -2.6,-1.5 v -1.25 c 0.06,0 2.5,0.14 3.9,0.14 1.31,0 2.61,-0.03 3.94,-0.14 v 1.25 c -2.27,0 -2.63,0 -2.63,1.5 z"
         style="fill:#000000;stroke-width:0" /></g></g><g
     id="g1111"
     transform="translate(44.139625,37.63186)"><g
       word-spacing="normal"
       letter-spacing="normal"
       font-size-adjust="none"
       font-stretch="normal"
       font-weight="normal"
       font-variant="normal"
       font-style="normal"
       stroke-miterlimit="10.433"
       xml:space="preserve"
       transform="matrix(0.36723811,0,0,-0.36723811,-64.26667,200.32599)"
       id="g1109"
       style="font-style:normal;font-variant:normal;font-weight:normal;font-stretch:normal;letter-spacing:normal;word-spacing:normal;text-anchor:start;fill:none;fill-opacity:1;fill-rule:evenodd;stroke:#000000;stroke-linecap:butt;stroke-linejoin:miter;stroke-miterlimit:10.43299961;stroke-dasharray:none;stroke-dashoffset:0;stroke-opacity:1"><path
         id="path1101"
         d="m 476.22,418.04 0.39,0.1 0.38,0.11 0.38,0.11 0.38,0.12 0.37,0.13 0.36,0.14 0.36,0.15 0.35,0.15 0.35,0.16 0.33,0.17 0.33,0.18 0.32,0.18 0.31,0.19 0.3,0.2 0.28,0.2 0.28,0.21 0.26,0.22 0.25,0.22 0.24,0.23 0.23,0.23 0.21,0.24 0.19,0.25 0.18,0.25 0.16,0.25 0.15,0.26 0.12,0.27 0.11,0.27 0.09,0.27 0.08,0.28 0.05,0.28 0.03,0.29 0.01,0.29 c 0,2.98 -3.55,5.36 -8.59,5.36 h -10.71 c -0.65,0 -1.11,0 -1.11,-0.77 0,-0.48 0.41,-0.48 1.11,-0.48 0.04,0 0.71,0 1.33,-0.08 0.74,-0.06 0.8,-0.14 0.8,-0.49 0,-0.06 0,-0.23 -0.14,-0.76 l -4.64,-18.5 c -0.27,-1.19 -0.35,-1.47 -3.06,-1.47 -0.6,0 -1.05,0 -1.05,-0.74 0,-0.34 0.25,-0.51 0.56,-0.51 0.66,0 1.47,0.11 2.16,0.11 0.67,0 1.67,0.03 2.29,0.03 0.71,0 1.5,-0.03 2.24,-0.03 0.73,0 1.61,-0.11 2.34,-0.11 0.17,0 0.72,0 0.72,0.73 0,0.52 -0.34,0.52 -1.14,0.52 -0.56,0 -0.7,0 -1.33,0.08 -0.76,0.09 -0.76,0.17 -0.76,0.51 0,0.03 0,0.25 0.14,0.77 l 2.18,8.81 h 4.75 l 0.04,0.99 h -4.5 l 2.23,8.95 c 0.25,0.97 0.31,1.08 1.08,1.19 h 2.23 c 3.24,0 7.25,0 7.25,-3.6 0,-1.42 -0.67,-3.62 -2.29,-4.87 -1.44,-1.11 -3.6,-1.67 -6,-1.67 l -0.04,-0.99 c 3,0 4.29,-1.48 4.29,-3.12 0,-0.46 -0.32,-1.64 -0.49,-2.44 -0.42,-1.61 -0.56,-2.13 -0.56,-2.72 0,-2.75 2.55,-3.84 5.12,-3.84 3.21,0 4.6,3.42 4.6,4.04 0,0.11 -0.06,0.49 -0.6,0.49 -0.45,0 -0.51,-0.24 -0.62,-0.6 -0.49,-1.53 -1.77,-2.95 -3.24,-2.95 -0.9,0 -1.56,0.38 -1.56,2.27 0,0.87 0.21,2.68 0.35,3.62 0.14,0.94 0.14,1.28 0.14,1.64 0,0.41 0,1.53 -0.99,2.58 -0.65,0.72 -1.59,1.17 -2.36,1.45 z"
         inkscape:connector-curvature="0"
         style="fill:#000000;stroke-width:0" /><path
         id="path1103"
         d="m 509.13,408.68 v 0.14 l -0.01,0.14 -0.01,0.13 -0.01,0.13 -0.01,0.13 -0.02,0.12 -0.02,0.12 -0.02,0.12 -0.03,0.11 -0.03,0.11 -0.03,0.11 -0.04,0.1 -0.04,0.1 -0.04,0.1 -0.08,0.18 -0.1,0.17 -0.11,0.16 -0.11,0.15 -0.13,0.14 -0.13,0.12 -0.13,0.12 -0.15,0.1 -0.15,0.1 -0.16,0.09 -0.16,0.08 -0.16,0.07 -0.17,0.06 -0.17,0.06 -0.18,0.04 -0.18,0.05 -0.18,0.03 -0.18,0.03 -0.18,0.03 -0.18,0.02 -0.19,0.01 -0.18,0.01 -0.18,0.01 -0.35,0.01 c -2.44,0 -3.86,-1.22 -4.57,-2.33 -0.62,2.29 -3.15,2.33 -4.07,2.33 -2.57,0 -4.02,-1.38 -4.65,-2.46 v 2.46 l -4.07,-0.29 v -1.09 c 1.84,0 2.06,-0.17 2.06,-1.39 v -6.16 c 0,-0.78 0,-1 -1.63,-1 h -0.43 v -1.09 c 1.06,0.08 2.11,0.09 3.18,0.09 1.05,0 2.11,-0.01 3.16,-0.09 v 1.09 h -0.44 c -1.62,0 -1.62,0.22 -1.62,1 v 4.33 c 0,2.77 2.54,3.77 4.15,3.77 1.83,0 2.27,-1.02 2.27,-2.64 v -5.46 c 0,-0.78 0,-1 -1.61,-1 h -0.45 v -1.09 c 1.08,0.08 2.11,0.09 3.18,0.09 1.05,0 2.13,-0.01 3.16,-0.09 v 1.09 h -0.44 c -1.62,0 -1.62,0.22 -1.62,1 v 4.33 c 0,2.77 2.55,3.77 4.15,3.77 1.83,0 2.27,-1.02 2.27,-2.64 v -5.46 c 0,-0.78 0,-1 -1.61,-1 h -0.45 v -1.09 c 1.08,0.08 2.12,0.09 3.19,0.09 1.04,0 2.12,-0.01 3.17,-0.09 v 1.09 h -0.46 c -1.62,0 -1.62,0.22 -1.62,1 z"
         inkscape:connector-curvature="0"
         style="fill:#000000;stroke-width:0" /><path
         id="path1105"
         d="m 525.91,408.57 -0.01,0.22 -0.02,0.21 -0.03,0.21 -0.05,0.2 -0.07,0.2 -0.07,0.19 -0.09,0.18 -0.1,0.18 -0.11,0.17 -0.13,0.17 -0.13,0.15 -0.15,0.15 -0.16,0.15 -0.16,0.13 -0.18,0.13 -0.18,0.13 -0.2,0.11 -0.2,0.11 -0.21,0.11 -0.22,0.09 -0.23,0.09 -0.24,0.08 -0.24,0.07 -0.25,0.07 -0.25,0.05 -0.26,0.05 -0.27,0.05 -0.27,0.03 -0.28,0.03 -0.28,0.02 -0.28,0.01 -0.29,0.01 c -1.52,0 -4.4,-0.08 -4.4,-2.19 0,-0.92 0.7,-1.34 1.31,-1.34 0.67,0 1.32,0.46 1.32,1.31 0,0.61 -0.34,0.98 -0.57,1.12 0.82,0.28 2.01,0.28 2.29,0.28 2.11,0 3.44,-1.17 3.44,-2.96 v -0.66 -0.74 -2.45 c 0,-2.73 -2.98,-2.98 -3.61,-2.98 -1.47,0 -2.87,0.76 -2.87,2.06 0,0.83 0.53,3.12 6.48,3.37 v 0.74 c -2.42,-0.13 -3.76,-0.19 -5.69,-0.86 -1.64,-0.58 -3.07,-1.63 -3.07,-3.25 0,-2.33 2.89,-2.89 4.87,-2.89 1.92,0 3.42,0.78 4.19,2.05 0.09,-0.88 0.67,-1.93 1.94,-1.93 0.18,0 3.01,0 3.01,2.39 v 1.38 h -1.04 v -1.31 c 0,-0.25 0,-1.35 -0.99,-1.35 -1,0 -1,1.1 -1,1.35 z"
         inkscape:connector-curvature="0"
         style="fill:#000000;stroke-width:0" /><path
         id="path1107"
         d="m 545.77,411.89 -0.27,-0.01 -0.27,-0.02 -0.14,-0.01 -0.14,-0.01 h -0.14 l -0.15,-0.01 -0.14,-0.01 h -0.15 l -0.16,-0.01 h -0.15 -0.17 l -0.16,-0.01 h -0.18 -0.17 c -0.88,0 -1.9,0.02 -2.77,0.09 v -1.09 c 0.45,-0.05 0.47,-0.42 0.47,-0.47 0,-0.45 -0.25,-0.7 -0.94,-1.4 l -1.25,-1.19 c -1.14,1.09 -2.44,2.36 -2.44,2.61 0,0.42 0.55,0.45 0.64,0.45 v 1.09 c -1.01,-0.07 -2.97,-0.09 -3.09,-0.09 -0.98,0 -1.72,0 -2.77,0.09 v -1.09 h 0.49 c 1.56,0 1.59,-0.05 2.94,-1.39 l 2.93,-2.97 c -0.17,-0.15 -2.34,-2.34 -2.71,-2.67 -0.69,-0.64 -1.61,-1.48 -3.79,-1.52 v -1.09 c 0.72,0.05 1.43,0.09 2.39,0.09 0.88,0 1.9,-0.01 2.77,-0.09 v 1.09 c -0.37,0.05 -0.45,0.33 -0.45,0.47 0,0.44 0.36,0.8 0.45,0.91 0.25,0.26 1.92,1.89 2.06,2.05 0.88,-0.86 1.96,-1.91 2.57,-2.6 0.2,-0.25 0.23,-0.25 0.23,-0.37 0,-0.42 -0.55,-0.46 -0.66,-0.46 v -1.09 c 1.03,0.08 2.97,0.09 3.1,0.09 1,0 1.72,0 2.76,-0.09 v 1.09 h -0.47 c -1.37,0 -1.65,0.21 -1.95,0.41 -0.25,0.17 -3.14,3.16 -4.25,4.3 3.06,3.17 3.7,3.81 6.13,3.84 z"
         inkscape:connector-curvature="0"
         style="fill:#000000;stroke-width:0" /></g></g></svg>